<?xml version="1.0" encoding="utf-8"?>
<!-- Generator: Adobe Illustrator 16.0.0, SVG Export Plug-In . SVG Version: 6.00 Build 0)  -->
<!DOCTYPE svg PUBLIC "-//W3C//DTD SVG 1.1//EN" "http://www.w3.org/Graphics/SVG/1.1/DTD/svg11.dtd">
<svg version="1.1" id="Слой_1" xmlns="http://www.w3.org/2000/svg" xmlns:xlink="http://www.w3.org/1999/xlink" x="0px" y="0px"
	 width="23.953px" height="23px" viewBox="0 0 23.953 23" enable-background="new 0 0 23.953 23" xml:space="preserve">
<path fill="#C5C5C5" d="M21.547,21.304c-0.127,0.126-0.292,0.189-0.457,0.189c-0.166,0-0.331-0.063-0.457-0.189l-6.82-6.84
	c-1.352,1.148-3.096,1.844-5.003,1.844c-4.276,0-7.755-3.489-7.755-7.778c0-4.289,3.479-7.777,7.755-7.777
	c4.277,0,7.755,3.489,7.755,7.777c0,1.912-0.693,3.661-1.839,5.018l6.821,6.839C21.799,20.64,21.799,21.05,21.547,21.304z
	 M8.81,2.049c-3.563,0-6.462,2.907-6.462,6.481s2.899,6.481,6.462,6.481s6.463-2.908,6.463-6.481S12.373,2.049,8.81,2.049z"/>
</svg>
