<?xml version="1.0" encoding="utf-8"?>
<!-- Generator: Adobe Illustrator 16.0.0, SVG Export Plug-In . SVG Version: 6.00 Build 0)  -->
<!DOCTYPE svg PUBLIC "-//W3C//DTD SVG 1.1//EN" "http://www.w3.org/Graphics/SVG/1.1/DTD/svg11.dtd">
<svg version="1.1" id="Слой_1" xmlns="http://www.w3.org/2000/svg" xmlns:xlink="http://www.w3.org/1999/xlink" x="0px" y="0px"
	 width="146.334px" height="91.168px" viewBox="0 0 146.334 91.168" enable-background="new 0 0 146.334 91.168"
	 xml:space="preserve">
<ellipse fill="none" cx="130.677" cy="12.269" rx="1.543" ry="1.493"/>
<path fill="#FFFFFF" d="M79.957,44.835C65.351,56.552,47.51,70.962,26.229,88.28c25.168,8.133,51.015-17.227,61.139-26.95
	c-0.733-0.838-5.088-5.675-7.997-5.675c-1.783,1-16.463,11.599-21.759,15.432c-1.626,1.221-1.901,1.377-1.901,1.377
	s0.72-0.522,1.901-1.377c2.444-1.835,7.945-6.076,20.196-15.835c3.061-2.438,9.262,4.407,10.194,5.47
	c1.033-0.987,1.872-1.773,2.498-2.296L78.832,45.849L79.957,44.835z"/>
<path fill="#FFFFFF" d="M130.312,5.217c-3.593,2.52-19.848,15.145-50.176,39.474l11.439,13.022c0.087-0.02,0.154-0.013,0.193,0.034
	c1.404,1.671,1.735,2.123,1.735,2.123s0.841,0.338,0.664-1.104c-0.758-5.397,3.193-6.108,3.193-6.108s7.784-3.482,10.624-6.087
	c13.311-17.988,34.815-21.908,34.815-21.908s1.335-4.22,2.09-9.232C139.908,9.283,130.312,5.217,130.312,5.217z M130.677,13.762
	c-0.853,0-1.543-0.669-1.543-1.492c0-0.825,0.69-1.493,1.543-1.493c0.852,0,1.542,0.668,1.542,1.493
	C132.219,13.093,131.529,13.762,130.677,13.762z"/>
<path fill="#FFFFFF" d="M56.816,32.517c-0.051,0-0.094-0.01-0.122-0.043c-1.392-1.681-1.72-2.134-1.72-2.134
	s-0.839-0.344-0.672,1.101c0.721,5.402-3.237,6.086-3.237,6.086s-7.807,3.425-10.666,6.008C26.962,61.433,5.431,65.2,5.431,65.2
	s-1.363,4.209-2.154,9.218c4.939,6.18,14.506,10.316,14.506,10.316c3.592-2.482,19.786-14.878,49.979-38.749L56.816,32.517z
	 M16.347,77.273c-0.852,0-1.542-0.669-1.542-1.493c0-0.826,0.69-1.493,1.542-1.493c0.852,0,1.543,0.667,1.543,1.493
	C17.89,76.604,17.198,77.273,16.347,77.273z"/>
<path fill="#FFFFFF" d="M67.803,45.953c14.799-11.701,32.943-26.143,54.645-43.551C97.729-5.779,72.128,18.487,61.612,28.455
	c0.332,0.363,5.182,5.617,8.255,5.523c1.752-1.052,16.107-12.093,21.284-16.084c1.587-1.268,1.857-1.433,1.857-1.433
	s-0.703,0.544-1.857,1.433c-2.387,1.907-7.757,6.314-19.709,16.443c-3.148,2.667-10.11-4.892-10.465-5.281
	c-1.296,1.228-2.33,2.193-3.06,2.789l11.185,13.023L67.803,45.953z"/>
<path fill="#FFFFFF" d="M58.888,70.138"/>
</svg>
